<svg width="83" height="24" fill="none" xmlns="http://www.w3.org/2000/svg"><path fill-rule="evenodd" clip-rule="evenodd" d="M15.38 16.287c.03.262-.04.757-.051.822a3.633 3.633 0 01-.16.54c-.086.19-.182.375-.288.555-.225.355-.5.68-.815.963-.894.744-2.277 1.168-3.464 1.308a9.165 9.165 0 01-2.585-.073c-.293-.05-.73-.145-.73-.145s0 .169-.013.29a1.142 1.142 0 01-.075.243.397.397 0 01-.312.218.962.962 0 01-.534-.026c-.27-.11-.368-.354-.416-.635a11.047 11.047 0 01-.075-.618s-.202-.092-.372-.174a9.718 9.718 0 01-1.445-.852c-.12-.086-.634-.5-.748-.603-.317-.291-.603-.582-.822-.952-.169-.29-.217-.547-.089-.854.179-.428.816-.75 1.253-.935.32-.136 1.316-.45 1.73-.508a5.79 5.79 0 00.517-.092.095.095 0 00.018-.016c.01-.013.026-.436.023-.592-.003-.156.117-1.154.156-1.365.02-.115.11-.556.202-.672.06-.078.167-.073.254-.02.474.284.618 1.27.654 1.77.02.306.031.766.031.766s.544-.015.88-.007c.342.015.684.051 1.021.11.433.065 1.276.243 1.76.478.397.195.77.523.891.872.113.318.095.537-.075.824-.192.324-.556.564-.924.582-.11.005-.522-.047-.65-.146a.106.106 0 01-.01-.152c.013-.016.205-.114.32-.172a.752.752 0 00.15-.1c.095-.082.18-.17.17-.273-.012-.135-.16-.218-.301-.27-.66-.254-1.978-.463-2.615-.5-.25-.014-.604-.025-.604-.025l.076 3.386s.292.055.523.09c.133.02.695.068.844.073 1.137.029 2.405-.069 3.449-.543.457-.208.877-.466 1.196-.815.432-.487.641-1.12.58-1.758-.063-.723-.592-1.58-1.013-2.102-1.114-1.38-3.025-2.515-4.705-3.18-1.715-.678-3.41-1.07-5.23-1.135-.47-.017-1.494.006-2.01.146a4.5 4.5 0 00-.079.021 2.369 2.369 0 01-.139.037.604.604 0 00-.163.066.281.281 0 00-.026.024l.062.03c.033.013.127.023.223.034.067.008.134.015.183.024a.394.394 0 01.261.145.145.145 0 010 .188c-.117.138-.558.114-.754.085-.197-.03-.453-.09-.5-.26-.054-.2.045-.394.151-.575.214-.364.52-.55.968-.667.666-.172 1.349-.275 2.037-.31 1.359-.048 2.642.18 3.962.565.842.252 1.666.56 2.463.923.616.293 1.214.618 1.794.973.144.091.991.69 1.123.795.274.218.633.527.893.775.503.48 1.128 1.215 1.433 1.8.03.053.056.107.082.162.043.086.086.176.145.273.076.157.14.318.194.483l.014.06c.021.085.043.176.047.18.03.147.05.295.06.444zm.332-2.477c.042-.084.09-.164.145-.241l.01.003c.006-.007.039.01.064.029.086.03.174.05.264.064.053.004.108.013.164.022.05.008.101.017.151.02.34.03.8-.075 1.102-.188.68-.255 1.208-.624 1.736-1.147.31-.304.583-.804.483-1.26a.922.922 0 00-.354-.544c-.149-.11-.32-.19-.503-.23a.546.546 0 01-.132-.029.382.382 0 01-.072-.079 1.288 1.288 0 00-.528-.34c-.521-.175-1.217-.043-1.692.15-.496.199-.944.494-1.317.867-.35.363-.62.815-.591 1.308.013.187.064.37.15.538.024.041.056.085.088.128.06.08.12.163.138.243.009.086.01.173.005.259a.75.75 0 00.253.54c.042.044.1.07.161.071a.23.23 0 00.165-.062.485.485 0 00.11-.122zm-.016-1.816c-.12.162-.27.375-.27.375h-.002s-.032-.063-.052-.11c-.138-.337.171-.714.453-.946.17-.14.511-.36.744-.403.098-.019.271-.036.271-.036l-.204.165c-.345.288-.66.608-.94.955zm5.188 4.276l-.055-.007h-.008l-1.91-.218a1.456 1.456 0 00-.1-.016c-.128-.02-.406-.065-.288-.191a.6.6 0 01.227-.09c.657-.173 1.451-.2 2.192-.223.232-.008.46-.016.676-.027l.01-.001c.209-.013.653-.04.876-.106a.592.592 0 00.436-.436c.024-.12-.035-.175-.151-.235-.753-.382-1.991-.382-2.757-.29-.793.094-1.85.331-2.303.958-.173.238-.27.606-.194.905.054.17.181.309.349.383.168.064.344.106.523.125.14.02.64.06 1.066.096l.278.023c.438.034 1.283.123 1.736.306 0 0 .43.146.43.383a.362.362 0 01-.186.274c-.677.463-1.603.595-2.434.582-.272 0-.54-.056-.79-.162-.121-.05-.28-.173-.257-.303.049-.253.337-.318.577-.296.152.02.3.06.442.116.11.042.21.083.3.12.342.143.57.238.94.184.173-.028.777-.152.859-.391a.163.163 0 00-.054-.165c-.066-.063-.43-.2-.528-.233a6.182 6.182 0 00-1.404-.248c-.491-.016-1.146.072-1.448.473a.775.775 0 00-.039.861c.212.362.634.642.981.805a3.77 3.77 0 001.94.334c.356-.031.703-.122 1.027-.268.317-.147.664-.424.822-.755a1.653 1.653 0 00-.038-1.453 1.152 1.152 0 00-.61-.555c-.313-.133-.72-.204-1.133-.259zm-3.896-3.498a3.037 3.037 0 001.248-.36c.378-.204.94-.604.882-1.073a.4.4 0 00-.251-.32c-.17-.073-.259-.06-.475 0-.133.033-.26.085-.377.153a5.647 5.647 0 00-1.39 1.183l-.083.108a7.672 7.672 0 01-.135.175c-.04.047-.07.09-.065.1.013.048.471.043.645.032l.001.002zm-.52 1.81a.432.432 0 01.08.022c.239.088.337.3.396.533.136.541.194 1.739.216 2.208.009.186.016.37.022.554.006.165.012.328.02.493l.002.071c.014.282.03.637-.03.89a.455.455 0 01-.19.275c-.113.073-.37.073-.513.046-.348-.069-.461-.284-.511-.617-.119-.792-.061-2.348.008-3.005.023-.218.108-.911.227-1.202.04-.099.125-.296.274-.268zM5.862 15.9zm0 0c-.003 0-.52.035-.876.073-.453.047-1.31.189-1.802.359-.147.05-.448.171-.474.318-.026.147.07.27.179.393.063.073.419.401.52.482A9.087 9.087 0 005.3 18.633c.215.085.57.207.57.207s-.026-.973-.021-1.933c0-.497.013-.985.013-1.006zm24.293-.144s1.674-.077 2.31-.218l-.006-.003c.327-.075.135-.384.135-.384-.397-.764-.854-.721-.854-.721-1.316-.043-3.23.294-3.439.393-.194.085-.173.227.08.536.274.325.734.295.734.295l-.403.803c-.33.022-.442.121-.442.121-.187.195.075.772.075.772s-.571 1.235-.157 1.89c.443.686.971.653.971.653 1 .07 2.648-.94 2.736-1.274.073-.27-.185-.564-.412-.62-.214-.042-1.863.256-2.06.306-.212.056-.117-.136-.117-.136l.254-.83s1.577-.059 1.803-.096c.214-.035.227-.18.227-.18.016-.153.022-.306.02-.46-.024-.24-.221-.217-.221-.217-.608-.062-1.445.007-1.445.007l.21-.637zm-2.638 2.87c-.17.383-.615.79-1.169.537-.554-.254-1.416-1.97-1.416-1.97s-.33-.64-.394-.623c0 0-.076-.124-.116.575-.009.156-.013.344-.018.545-.017.701-.037 1.555-.261 1.721-.273.218-.604.13-.776-.121-.155-.247-.22-.832-.136-1.861.1-1.031.349-2.128.667-2.47.313-.339.565-.101.667-.005l.004.004s.425.37 1.125 1.458l.124.201s.635 1.028.702 1.026c0 0 .052.047.099.013.066-.019.04-.348.04-.348s-.133-1.12-.713-3.016a.86.86 0 01-.029-.457c.06-.225.292-.12.292-.12s.9.437 1.336 1.846c.436 1.41.143 2.683-.028 3.068v-.003zm6.576.945c1.535.34 2.692-1.1 3.1-1.789l.004-.004c.248-.458.375-.967.37-1.483 0-.592-.169-1.14-.534-1.392-1.093-.727-2.85 1.58-3.623 2.725-.115-.583.295-1.322.295-1.322s.659-1.095.748-1.316c.09-.222.133-.683.03-.727-.103-.044-.28.102-.28.102-1.473 1.276-1.68 2.689-1.68 2.689-.138.762.024 1.297.263 1.67-.819 1.682-1.22 3.147-1.113 4.014.099.654.586 1.135.888 1.236.3.12.354-.228.354-.228.244-1.793.67-2.99 1.178-4.175zm2.784-3.6s-.06-.456-.522.045a10.8 10.8 0 00-1.69 2.292c.603-.065 1.188-.382 1.365-.543.286-.245.955-.91.847-1.794zm5.968-.104h2.815a.23.23 0 01.16.065.214.214 0 01.066.155v.561c0 .12-.101.218-.226.218h-2.775v.381a20.04 20.04 0 01-.117 2.266.223.223 0 01-.227.197h-.603a.218.218 0 01-.158-.068.201.201 0 01-.054-.159c.085-.743.125-1.49.122-2.236v-.38H39.1a.222.222 0 01-.227-.219v-.563c0-.12.101-.218.227-.218h2.708a19.13 19.13 0 00-.359-2.689.18.18 0 01.04-.152.193.193 0 01.147-.067h.65c.1 0 .186.07.205.165.18.906.297 1.822.353 2.743z" fill="#272C35"/><path d="M42.107 11.634C39.401 5.229 33.241.789 26.096.094 18.95-.6 11.993 2.565 8.012 8.32a.211.211 0 00-.026.192.227.227 0 00.143.138l.504.164a.284.284 0 00.324-.105C12.374 3.86 18.065.958 24.15.96c7.38.001 14.042 4.253 16.917 10.797a.265.265 0 00.244.156h.604c.07 0 .135-.034.174-.09a.195.195 0 00.018-.19zM69.195 14.058H60.62c-.874 0-1.461.45-1.545 1.13-.035.243-.06.473-.06.473h11.426s.024-.161.036-.3c.084-.68-.204-1.303-1.283-1.303M70.37 16.26s-.024.218-.06.474c-.076.483-.444.853-1.126.853h-2.43l-.276 2.156h-1.943l.443-3.47h5.39l.002-.012zM53.649 14.058l-.204 1.592h5.186l.204-1.592h-5.186zM53.376 16.254l-.443 3.482h5.174l.191-1.51h-3.233l.084-.657h3.233l.168-1.315h-5.174zM71.037 14.058h4.227c.67 0 1.365.3 1.22 1.35-.022.184-.035.242-.035.242h-5.615l.203-1.592zM70.32 19.731h1.928l.443-3.47h-1.94l-.431 3.47zM74 19.731h1.939l.432-3.47h-1.929L74 19.73zM63.198 16.26h-4.252c-.144.912.324 1.315.982 1.315h2.622l-.083.654h-3.774l-.192 1.51h4.276c.131-.012 1.1-.034 1.425-.8.108-.253.204-1.141.226-1.325.144-1.107-.622-1.36-1.233-1.36M79.49 14.758l-.18 1.418h-1.438l-.18 1.407h1.45l-.192 1.441h1.545l.18-1.44h1.461l.168-1.408h-1.45l.18-1.418H79.49z" fill="#272C35"/></svg>